<svg width="600" height="93" viewBox="0 0 600 93" fill="none" xmlns="http://www.w3.org/2000/svg">
<path d="M184.901 92.2143L222.6 1.35571H198.19L171.339 71.6017H169.983L142.726 1.35571H118.181L155.88 92.2143H184.901Z" fill="white"/>
<path d="M247.281 16.0021V0H226.939V16.0021H247.281ZM247.281 90.8586V22.9181H226.939V90.8586H247.281Z" fill="white"/>
<path d="M278.335 81.4331V47.1239C278.335 35.5975 282.946 30.4444 295.829 30.4444C308.305 30.4444 312.78 35.0548 312.78 45.9038V81.4331H333.121V39.1231C333.121 24.0706 324.307 12.1367 305.728 12.1367C287.964 12.1367 279.827 22.9858 278.064 34.3769H276.844V13.4932H257.994V81.4331H278.335Z" fill="white"/>
<path d="M389.941 87.3322V69.0252H377.737C370.549 69.0252 367.973 67.2624 367.973 60.4817V36.2077H389.941V19.3923H367.973V6.23779H347.631V19.3923H336.918V36.2077H347.631V62.7872C347.631 79.8736 357.259 87.3322 373.126 87.3322H389.941Z" fill="white"/>
<path d="M424.657 92.2143V41.0897H445.677V24.2738H423.843C423.301 17.6289 427.505 16.1372 436.455 16.1372H445.677V1.35571H439.71C418.826 1.35571 406.892 10.5772 404.723 24.2738H394.688V41.0897H404.316V92.2143H424.657Z" fill="white"/>
<path d="M476.46 92.2143V1.35571H456.119V92.2143H476.46Z" fill="white"/>
<path d="M509.277 17.3578V1.35571H488.937V17.3578H509.277ZM509.277 92.2143V24.2738H488.937V92.2143H509.277Z" fill="white"/>
<path d="M538.569 86.1794L556.062 63.3971H557.147L575.183 86.1794H600L572.878 52.684V51.4633L600 18.2395H575.454L557.961 41.157H556.876L538.84 18.2395H514.023L541.146 51.8702V52.9551L514.023 86.1794H538.569Z" fill="white"/>
<path fill-rule="evenodd" clip-rule="evenodd" d="M72.7682 68.9025H19.4468C15.1565 68.9025 11.6469 65.3929 11.6469 61.1025V18.5244C11.6469 14.234 15.1565 10.7244 19.4468 10.7244H72.7682C77.0586 10.7244 80.5682 14.234 80.5682 18.5244V61.1025C80.5682 65.3929 77.0586 68.9025 72.7682 68.9025ZM89.208 0H3.00708C1.35295 0 0 1.35295 0 3.00708V89.2074C0 90.8615 1.35295 92.2145 3.00708 92.2145H89.208C90.8621 92.2145 92.2151 90.8615 92.2151 89.2074V3.00708C92.2151 1.35295 90.8621 0 89.208 0Z" fill="white"/>
</svg>
