<svg width="25" height="25" viewBox="0 0 25 25" fill="none" xmlns="http://www.w3.org/2000/svg">
<path d="M5.26904 11.4999C5.26657 10.6144 5.43885 9.73703 5.77603 8.91817C6.1132 8.09931 6.60864 7.35503 7.23394 6.72798C7.85925 6.10092 8.60214 5.60341 9.42006 5.26395C10.238 4.92449 11.1148 4.74976 12.0004 4.74976C12.8859 4.74976 13.7628 4.92449 14.5807 5.26395C15.3986 5.60341 16.1415 6.10092 16.7668 6.72798C17.3921 7.35503 17.8876 8.09931 18.2247 8.91817C18.5619 9.73703 18.7342 10.6144 18.7317 11.4999V11.4999C18.7317 14.8576 19.4342 16.8061 20.0529 17.871C20.1196 17.9848 20.1551 18.1141 20.1558 18.246C20.1565 18.3779 20.1224 18.5076 20.0569 18.6221C19.9915 18.7366 19.8971 18.8318 19.7831 18.8981C19.6691 18.9645 19.5397 18.9996 19.4078 18.9999H4.59222C4.46034 18.9996 4.33087 18.9645 4.21689 18.8981C4.1029 18.8318 4.00844 18.7365 3.94301 18.622C3.87759 18.5075 3.84352 18.3777 3.84425 18.2459C3.84498 18.114 3.88048 17.9846 3.94716 17.8708C4.56622 16.8059 5.26904 14.8575 5.26904 11.4999H5.26904Z" stroke="white" stroke-width="1.5" stroke-linecap="round" stroke-linejoin="round"/>
<path d="M9 19V19.75C9 20.5456 9.31607 21.3087 9.87868 21.8713C10.4413 22.4339 11.2044 22.75 12 22.75C12.7956 22.75 13.5587 22.4339 14.1213 21.8713C14.6839 21.3087 15 20.5456 15 19.75V19" stroke="white" stroke-width="1.5" stroke-linecap="round" stroke-linejoin="round"/>
<path d="M17.1968 3.24902C18.7229 4.21245 19.9531 5.57885 20.7516 7.19736" stroke="white" stroke-width="1.5" stroke-linecap="round" stroke-linejoin="round"/>
<path d="M3.24854 7.19736C4.04705 5.57885 5.27728 4.21245 6.80339 3.24902" stroke="white" stroke-width="1.5" stroke-linecap="round" stroke-linejoin="round"/>
<circle cx="18" cy="7" r="6" fill="#C01010" stroke="white" stroke-width="2"/>
</svg>
