<svg width="37" height="36" viewBox="0 0 37 36" fill="none" xmlns="http://www.w3.org/2000/svg">
<path d="M10.8198 1.32523C14.3785 -0.144618 18.323 -0.400375 22.0415 0.598663C25.7598 1.59769 29.0452 3.79525 31.3881 6.85062C33.731 9.90608 35.0004 13.6497 35.0004 17.5H30.0004C30.0004 14.7499 29.0938 12.076 27.4204 9.89359C25.7469 7.71111 23.3996 6.14137 20.7436 5.42776C18.0877 4.71429 15.2707 4.89654 12.729 5.94632C10.187 6.99621 8.06236 8.85547 6.68403 11.2354C5.30574 13.6153 4.75056 16.3831 5.10493 19.1104C5.45931 21.8376 6.70328 24.3717 8.64399 26.3203C10.5847 28.2689 13.1136 29.5232 15.8393 29.8887C18.5651 30.2541 21.3357 29.7105 23.7211 28.3418L26.2094 32.6787C22.8698 34.5948 18.9914 35.3563 15.1752 34.8448C11.3591 34.3331 7.81806 32.5767 5.10102 29.8487C2.38418 27.1207 0.643088 23.5729 0.146922 19.7549C-0.349183 15.9368 0.427332 12.0613 2.35688 8.72952C4.28649 5.39775 7.26118 2.7951 10.8198 1.32523Z" fill="#A4A4A4"/>
<path d="M34.8194 15.3392C35.1292 17.7099 34.9505 20.119 34.2933 22.4177C33.636 24.7164 32.514 26.8557 30.9979 28.7043C29.4817 30.5529 27.6033 32.0716 25.4777 33.166C23.3521 34.2603 21.0248 34.9075 18.6395 35.0677L18.299 29.9951C19.9919 29.8815 21.6437 29.4224 23.1521 28.6456C24.6607 27.8687 25.9942 26.7909 27.0699 25.4786C28.1456 24.1663 28.9403 22.6469 29.4061 21.0153C29.8714 19.3856 29.9986 17.6781 29.7789 15.9976L34.8194 15.3392ZM17.4675 17.607L29.7776 15.9918C29.7778 15.9938 29.7787 15.9957 29.7789 15.9976L17.4675 17.607Z" fill="#FF7F37"/>
</svg>
