<svg width="40" height="40" viewBox="0 0 40 40" fill="none" xmlns="http://www.w3.org/2000/svg">
<path d="M36.9512 14.2244C36.9343 13.8083 36.8938 13.3935 36.83 12.982C36.7557 12.5464 36.6565 12.1154 36.533 11.6911C35.9175 9.81868 34.8809 8.11232 33.5027 6.70322L33.3815 6.59413V6.55776C32.0136 5.23783 30.3519 4.26157 28.533 3.70928C28.1106 3.58646 27.6816 3.48733 27.2482 3.41232C26.8471 3.34511 26.4423 3.3026 26.0361 3.28504C25.2865 3.25621 24.5364 3.32755 23.8057 3.49716C23.1806 3.64 22.5815 3.87922 22.03 4.20625C21.5542 4.47787 21.1313 4.83304 20.7815 5.25474C20.3424 5.77626 20.0459 6.40268 19.9209 7.07292V9.12746C20.2137 8.35522 20.7075 7.67522 21.3512 7.15776C21.7195 6.85046 22.1271 6.59365 22.5633 6.39413C23.0552 6.17819 23.5724 6.02546 24.1027 5.93959C24.7042 5.84735 25.3146 5.827 25.9209 5.87898C26.5866 5.94392 27.2431 6.08213 27.8785 6.2911C29.2924 6.77549 30.5774 7.57552 31.6361 8.6305C32.6921 9.69063 33.4923 10.9779 33.9754 12.3941C34.1854 13.0292 34.3237 13.6858 34.3876 14.3517C34.44 14.958 34.4197 15.5684 34.327 16.1699C34.2448 16.701 34.0919 17.2187 33.8724 17.7093C33.6763 18.146 33.4215 18.5538 33.1148 18.9214C32.5784 19.559 31.8818 20.0423 31.0967 20.3214H33.1512C33.8214 20.1964 34.4479 19.8999 34.9694 19.4608C35.3871 19.1175 35.7384 18.7005 36.0057 18.2305C36.3343 17.6775 36.5736 17.0762 36.7148 16.4487C36.8953 15.7216 36.9748 14.9732 36.9512 14.2244Z" fill="url(#paint0_linear_38_2954)"/>
<path d="M32.7887 17.6006C33.0602 17.1715 33.2645 16.7034 33.3947 16.2127C33.5158 15.6738 33.5727 15.1225 33.5644 14.5703C33.5327 13.9547 33.4311 13.3447 33.2614 12.7521C33.0672 12.0992 32.7902 11.474 32.4372 10.8915C32.048 10.2753 31.5994 9.69882 31.0978 9.17025L31.0129 9.09751L30.8735 8.946C30.4039 8.51506 29.8899 8.13516 29.3402 7.81267C28.7698 7.46527 28.1592 7.18849 27.522 6.98843C26.9294 6.81874 26.3194 6.71708 25.7038 6.6854C25.1497 6.68011 24.5967 6.73703 24.0553 6.85509C23.5659 6.9892 23.0985 7.19333 22.6675 7.46115C22.2898 7.6998 21.9574 8.00348 21.6856 8.35812C21.2002 9.00939 20.9177 9.78944 20.8735 10.6005C20.8521 11.0049 20.8643 11.4103 20.9099 11.8127C21.1354 11.184 21.517 10.623 22.019 10.1824C22.5959 9.71013 23.2884 9.40049 24.025 9.28539C24.225 9.25509 24.4311 9.23085 24.6311 9.21872C24.8451 9.20687 25.0595 9.20687 25.2735 9.21872C25.4917 9.21872 25.7159 9.26721 25.9402 9.30964C26.1644 9.35206 26.3887 9.4248 26.619 9.49753C27.5803 9.82136 28.455 10.3603 29.1765 11.0733C29.8836 11.8056 30.416 12.6882 30.7341 13.6551C30.806 13.8761 30.8667 14.1007 30.9159 14.3278C30.9611 14.5498 30.9915 14.7745 31.0068 15.0005C31.0068 15.2187 31.0068 15.4309 31.0068 15.643C31.0068 15.8551 30.9644 16.0612 30.9341 16.249C30.8228 16.9867 30.5127 17.6802 30.0372 18.2551C29.5993 18.7601 29.0374 19.1423 28.4068 19.3642C28.809 19.4128 29.2147 19.425 29.619 19.4006C30.4301 19.3614 31.211 19.0807 31.8614 18.5945C32.2257 18.3194 32.5395 17.9831 32.7887 17.6006Z" fill="url(#paint1_linear_38_2954)"/>
<path d="M29.5568 17.4667C29.7859 17.1537 29.9582 16.8029 30.0659 16.4303C30.1775 16.0569 30.2307 15.6684 30.2234 15.2788C30.2289 14.8525 30.1717 14.4278 30.0537 14.0182C29.7918 13.1053 29.3064 12.2721 28.6416 11.5939C27.9653 10.9266 27.1315 10.4409 26.2174 10.1818C25.8072 10.0664 25.3828 10.0092 24.9568 10.0121C24.5687 10.0065 24.1822 10.0617 23.8113 10.1758C23.4386 10.2851 23.0864 10.455 22.7689 10.6788C22.476 10.8994 22.2203 11.1654 22.0113 11.4667C21.6358 12.0351 21.3954 12.6819 21.3083 13.3576C21.2614 13.6971 21.235 14.0391 21.2295 14.3818C21.4288 13.9207 21.7242 13.5074 22.0962 13.1697C22.4851 12.8363 22.9521 12.6069 23.4537 12.503C24.0391 12.4026 24.64 12.4439 25.2061 12.6236C25.7722 12.8033 26.287 13.1161 26.7073 13.5358C27.1276 13.9555 27.4411 14.4698 27.6216 15.0356C27.8021 15.6015 27.8443 16.2024 27.7446 16.7879C27.6376 17.2884 27.4086 17.7547 27.078 18.1454C26.743 18.5204 26.329 18.8164 25.8659 19.0121C26.2087 19.0095 26.5509 18.9832 26.8901 18.9333C27.566 18.8473 28.2131 18.6067 28.781 18.2303C29.0798 18.0201 29.3419 17.7621 29.5568 17.4667Z" fill="url(#paint2_linear_38_2954)"/>
<path d="M26.8727 17.085C27.0641 16.5888 27.1083 16.048 27 15.5274C26.9321 15.2557 26.8366 14.9918 26.7151 14.7395C26.5522 14.4989 26.3676 14.2737 26.1636 14.0668V14.0365L25.9333 13.8486C25.7881 13.7301 25.6341 13.6227 25.4727 13.5274C25.2213 13.4023 24.9572 13.3048 24.6848 13.2365C24.13 13.1164 23.5514 13.1769 23.0334 13.4092C22.5155 13.6414 22.0854 14.0333 21.806 14.5274C21.5283 15.0138 21.3241 15.5387 21.2 16.085C21.1272 16.3637 21.0727 16.6425 21.0303 16.9031C21.1843 16.5926 21.3892 16.3099 21.6363 16.0668C21.8735 15.8425 22.1569 15.6729 22.4666 15.5698C22.7718 15.4772 23.096 15.4666 23.4067 15.5389C23.7173 15.6113 24.0034 15.764 24.2363 15.9819C24.4553 16.2142 24.6091 16.5001 24.6826 16.8107C24.756 17.1214 24.7463 17.4459 24.6545 17.7516C24.5482 18.0599 24.379 18.3426 24.1575 18.5819C23.9093 18.8257 23.6252 19.0301 23.3151 19.188C23.5818 19.1395 23.8545 19.085 24.1333 19.0183C24.6803 18.8968 25.2056 18.6924 25.6909 18.4122C26.2235 18.116 26.64 17.6482 26.8727 17.085Z" fill="url(#paint3_linear_38_2954)"/>
<path d="M19.0358 5.24889C18.686 4.8272 18.2631 4.47201 17.7873 4.2004C17.2341 3.87234 16.6328 3.63307 16.0055 3.49131C15.2769 3.32166 14.5288 3.25032 13.7812 3.27919C13.375 3.29675 12.9702 3.33925 12.5691 3.40646C12.1338 3.48212 11.7029 3.58125 11.2782 3.70343C9.39185 4.27657 7.67546 5.30498 6.28034 6.69799C4.88522 8.09099 3.85421 9.80583 3.27821 11.6913C3.15472 12.1156 3.05556 12.5466 2.98124 12.9822C2.91146 13.393 2.87095 13.8082 2.86003 14.2246C2.82546 14.9724 2.89687 15.7212 3.07215 16.4489C3.21408 17.0752 3.45117 17.6762 3.77518 18.2307C4.04685 18.7047 4.40207 19.1256 4.82367 19.4731C5.34564 19.9116 5.97187 20.208 6.64185 20.3337H8.69639C7.92321 20.0395 7.24158 19.5461 6.72064 18.9034C6.4119 18.5374 6.15682 18.1292 5.96306 17.6913C5.74079 17.2018 5.5878 16.6837 5.50852 16.1519C5.41582 15.5504 5.39548 14.94 5.44791 14.3337C5.50675 13.6676 5.64303 13.0107 5.85397 12.3762C6.35708 10.9489 7.17056 9.65107 8.23579 8.57616C9.28944 7.54123 10.5607 6.75445 11.957 6.27313C12.5923 6.06373 13.2488 5.92551 13.9146 5.86101C14.5209 5.80915 15.1312 5.8295 15.7328 5.92162C16.263 6.00749 16.7803 6.16022 17.2722 6.37616C17.7084 6.57568 18.116 6.83249 18.4843 7.1398C19.1263 7.65887 19.6197 8.33837 19.9146 9.10949V7.05495C19.7824 6.3872 19.4796 5.76502 19.0358 5.24889Z" fill="url(#paint4_linear_38_2954)"/>
<path d="M18.9517 10.5879C18.9126 9.77674 18.6319 8.99583 18.1456 8.34543C17.8739 7.9908 17.5415 7.68711 17.1638 7.44846C16.7328 7.18063 16.2653 6.9765 15.7759 6.8424C15.2345 6.72434 14.6816 6.66742 14.1274 6.6727C13.5118 6.70391 12.9018 6.80558 12.3093 6.97573C11.6574 7.17257 11.0324 7.44942 10.4487 7.79997C9.82767 8.16533 9.25197 8.60271 8.7335 9.10301C8.22313 9.62624 7.77379 10.2057 7.39411 10.8303C7.04539 11.4142 6.77055 12.0392 6.57593 12.6909C6.40335 13.2828 6.30163 13.8932 6.2729 14.5091C6.26156 15.0614 6.31856 15.6131 6.44259 16.1515C6.5728 16.6423 6.77717 17.1103 7.04866 17.5394C7.29111 17.9178 7.59653 18.2519 7.95168 18.5273C8.60101 19.0155 9.38255 19.2964 10.1941 19.3333C10.5984 19.3577 11.0041 19.3456 11.4062 19.2969C10.7749 19.0766 10.2127 18.6941 9.77593 18.1879C9.29798 17.6145 8.98759 16.9203 8.87896 16.1818C8.84232 15.9815 8.81803 15.7791 8.80623 15.5757C8.80623 15.3636 8.80623 15.1515 8.80623 14.9333C8.82256 14.7077 8.85088 14.4832 8.89108 14.2606C8.94562 14.0363 9.00623 13.8121 9.07896 13.5879C9.40662 12.6252 9.94733 11.7489 10.6608 11.0242C11.3823 10.3112 12.257 9.77229 13.2184 9.44846C13.4487 9.37573 13.6729 9.31513 13.8911 9.26058C14.1093 9.20604 14.3456 9.19392 14.5638 9.16968C14.7778 9.15773 14.9923 9.15773 15.2062 9.16968C15.4184 9.16968 15.6244 9.20604 15.8123 9.23634C16.5471 9.35133 17.2377 9.66106 17.8123 10.1333C18.3179 10.5706 18.7003 11.1327 18.9214 11.7636C18.9686 11.3735 18.9788 10.9799 18.9517 10.5879Z" fill="url(#paint5_linear_38_2954)"/>
<path d="M12.0542 16.7819C11.9549 16.197 11.9971 15.5968 12.1773 15.0315C12.3574 14.4662 12.6704 13.9523 13.0899 13.5328C13.5095 13.1132 14.0234 12.8003 14.5887 12.6201C15.1539 12.4399 15.7542 12.3977 16.3391 12.4971C16.8428 12.6 17.3121 12.8295 17.7027 13.1638C18.0746 13.5015 18.3701 13.9147 18.5694 14.3759C18.5617 14.0331 18.5334 13.691 18.4846 13.3516C18.4002 12.6753 18.1595 12.0279 17.7815 11.4607C17.5747 11.1596 17.321 10.8936 17.03 10.6728C16.7125 10.4491 16.3603 10.2792 15.9876 10.1698C15.6145 10.0562 15.226 10.001 14.8361 10.0062C14.412 10.0037 13.9897 10.0608 13.5815 10.1759C12.6674 10.435 11.8336 10.9207 11.1573 11.588C10.4909 12.266 10.0035 13.0991 9.7391 14.0122C9.62742 14.4232 9.57036 14.847 9.5694 15.2729C9.5672 15.6626 9.62234 16.0506 9.73304 16.4244C9.84069 16.797 10.013 17.1478 10.2421 17.4607C10.4596 17.7563 10.7261 18.0126 11.03 18.2183C11.598 18.5947 12.245 18.8353 12.9209 18.9213C13.2601 18.9712 13.6023 18.9975 13.9452 19.0001C13.482 18.8044 13.068 18.5084 12.733 18.1335C12.3962 17.7476 12.1626 17.2826 12.0542 16.7819Z" fill="url(#paint6_linear_38_2954)"/>
<path d="M18.5756 16.0791C18.4516 15.5329 18.2473 15.008 17.9696 14.5215C17.6902 14.0274 17.2601 13.6356 16.7422 13.4033C16.2242 13.1711 15.6456 13.1105 15.0908 13.2306C14.5459 13.3464 14.0454 13.6155 13.6484 14.0064C13.4494 14.2202 13.2728 14.4537 13.1211 14.7033C12.9969 14.9545 12.9014 15.2187 12.8363 15.4912C12.7279 16.0118 12.7721 16.5527 12.9635 17.0488C13.1918 17.606 13.6019 18.0695 14.1272 18.3639C14.6108 18.643 15.1339 18.8473 15.6787 18.97C15.9635 19.0367 16.2363 19.0912 16.5029 19.1397C16.1929 18.9818 15.9088 18.7774 15.6605 18.5336C15.4391 18.2943 15.2698 18.0116 15.1635 17.7033C15.0717 17.3976 15.0621 17.0731 15.1355 16.7624C15.2089 16.4518 15.3628 16.166 15.5817 15.9336C15.8146 15.7158 16.1008 15.563 16.4114 15.4907C16.722 15.4183 17.0462 15.429 17.3514 15.5215C17.6611 15.6246 17.9445 15.7942 18.1817 16.0185C18.427 16.2632 18.6316 16.5456 18.7878 16.8549C18.7029 16.6367 18.6423 16.3579 18.5756 16.0791Z" fill="url(#paint7_linear_38_2954)"/>
<path d="M21.6492 32.3274C21.9242 32.679 22.256 32.9822 22.631 33.2244C23.062 33.4922 23.5295 33.6963 24.0189 33.8304C24.5603 33.9485 25.1133 34.0054 25.6674 34.0001C26.2835 33.9692 26.8938 33.8654 27.4855 33.691C28.1367 33.4947 28.7599 33.2156 29.3401 32.8607C29.8829 32.5316 30.3906 32.1478 30.8552 31.7153C30.8977 31.6789 30.9401 31.6244 30.9825 31.5819L31.0613 31.5153C31.5626 30.9864 32.0111 30.4099 32.4007 29.7941C32.7537 29.2116 33.0307 28.5863 33.2249 27.9335C33.3942 27.3408 33.4958 26.7308 33.528 26.1153C33.5366 25.563 33.4797 25.0117 33.3583 24.4729C33.2281 23.9821 33.0237 23.5141 32.7522 23.085C32.5098 22.7066 32.2043 22.3725 31.8492 22.0971C31.1988 21.6109 30.4179 21.3302 29.6068 21.291C29.2025 21.2666 28.7968 21.2788 28.3946 21.3274C29.0252 21.5493 29.587 21.9315 30.0249 22.4365C30.4995 23.0096 30.8095 23.7009 30.9219 24.4365C30.9219 24.6365 30.9825 24.8426 30.9946 25.0426C31.0068 25.2426 30.9946 25.4668 30.9946 25.685C30.9839 25.9188 30.9576 26.1516 30.9159 26.3819C30.8666 26.6091 30.8059 26.8336 30.734 27.0547C30.4061 28.0154 29.8654 28.8897 29.1522 29.6122C28.4329 30.3295 27.5576 30.8708 26.5946 31.1941C26.3643 31.2668 26.1401 31.3274 25.9158 31.3819C25.6916 31.4365 25.4674 31.4486 25.2492 31.4729C25.031 31.4971 24.8128 31.4729 24.6068 31.4729C24.4007 31.4729 24.1886 31.4365 24.0007 31.4062C23.2641 31.2911 22.5716 30.9814 21.9946 30.5092C21.4808 30.0705 21.0884 29.507 20.8552 28.8728C20.8096 29.2752 20.7974 29.6806 20.8189 30.085C20.8683 30.898 21.1572 31.6782 21.6492 32.3274Z" fill="url(#paint8_linear_38_2954)"/>
<path d="M21.8308 26.1521C22.1102 26.6462 22.5403 27.038 23.0583 27.2703C23.5762 27.5026 24.1548 27.5631 24.7096 27.443C24.982 27.3747 25.2461 27.2772 25.4975 27.1521C25.6589 27.0568 25.8129 26.9494 25.9581 26.8309L26.0672 26.74L26.1945 26.6309C26.396 26.4207 26.571 26.1866 26.7157 25.9339C26.8372 25.6817 26.9326 25.4177 27.0005 25.146C27.1092 24.6254 27.065 24.0845 26.8733 23.5885C26.6434 23.0303 26.2311 22.5667 25.7036 22.2733C25.2183 21.9932 24.693 21.7888 24.146 21.6673C23.8672 21.6006 23.5945 21.546 23.3278 21.4976C23.6391 21.6534 23.9235 21.858 24.1702 22.1036C24.3903 22.3417 24.5594 22.6221 24.6672 22.9279C24.7601 23.2344 24.7704 23.5602 24.697 23.872C24.6235 24.1838 24.469 24.4707 24.249 24.7036C24.0161 24.9215 23.73 25.0743 23.4194 25.1466C23.1087 25.2189 22.7845 25.2083 22.4793 25.1157C22.1706 25.0104 21.8877 24.8411 21.649 24.6188C21.4019 24.3756 21.197 24.093 21.043 23.7824C21.0854 24.043 21.1399 24.3218 21.2127 24.6006C21.3422 25.1451 21.5505 25.6677 21.8308 26.1521Z" fill="url(#paint9_linear_38_2954)"/>
<path d="M36.7395 24.2249C36.5917 23.5957 36.3441 22.9941 36.0062 22.4431C35.7364 21.9677 35.3809 21.5465 34.9577 21.2007C34.4365 20.7598 33.8102 20.4612 33.1395 20.334H31.0971C31.868 20.6324 32.5486 21.1252 33.0728 21.7643C33.3768 22.1338 33.6315 22.5413 33.8304 22.9764C34.0491 23.4694 34.2019 23.989 34.285 24.5219C34.3777 25.1233 34.398 25.7337 34.3456 26.34C34.2817 27.0059 34.1434 27.6625 33.9335 28.2976C33.4503 29.7139 32.6501 31.0011 31.5941 32.0613C30.5354 33.1162 29.2504 33.9163 27.8365 34.4007C27.2011 34.6096 26.5446 34.7478 25.8789 34.8128C25.2725 34.8617 24.6625 34.8413 24.0607 34.7522C23.5305 34.6663 23.0132 34.5136 22.5213 34.2976C22.0851 34.0981 21.6775 33.8413 21.3092 33.534C20.6653 33.0142 20.1716 32.3323 19.8789 31.5582V33.6188C20.0052 34.2887 20.3015 34.9148 20.7395 35.437C21.0893 35.8587 21.5122 36.2139 21.988 36.4855C22.5408 36.81 23.1395 37.0491 23.7638 37.1946C24.4943 37.365 25.2447 37.4344 25.9941 37.4007C26.4004 37.388 26.8054 37.3476 27.2062 37.2795C27.6397 37.2044 28.0686 37.1053 28.491 36.9825C30.3604 36.4134 32.0623 35.396 33.4486 34.0188C35.1855 32.3284 36.3401 30.1296 36.7456 27.74C36.8094 27.3285 36.8498 26.9137 36.8668 26.4976C36.9307 25.7378 36.8879 24.9728 36.7395 24.2249Z" fill="url(#paint10_linear_38_2954)"/>
<path d="M27.7388 23.8912C27.8429 24.4785 27.804 25.0823 27.6255 25.6514C27.447 26.2205 27.134 26.7382 26.7132 27.1609C26.2923 27.5835 25.7759 27.8986 25.2075 28.0795C24.6392 28.2605 24.0356 28.3019 23.4479 28.2003C22.9469 28.0947 22.4802 27.8655 22.0903 27.5336C21.7184 27.1959 21.4229 26.7827 21.2236 26.3215C21.2292 26.6642 21.2555 27.0062 21.3024 27.3458C21.3885 28.0198 21.6291 28.6648 22.0055 29.2306C22.2112 29.5345 22.4674 29.801 22.763 30.0185C23.0789 30.2464 23.4315 30.4186 23.8055 30.5276C24.1764 30.6416 24.5629 30.6968 24.9509 30.6912C25.377 30.6941 25.8014 30.637 26.2115 30.5215C27.1256 30.2624 27.9594 29.7767 28.6358 29.1094C29.3006 28.4312 29.7859 27.598 30.0479 26.6852C30.1655 26.2754 30.2226 25.8508 30.2176 25.4246C30.2248 25.0349 30.1716 24.6464 30.06 24.273C29.9523 23.9004 29.78 23.5496 29.5509 23.2367C29.3335 22.941 29.067 22.6847 28.763 22.4791C28.1951 22.1026 27.548 21.8621 26.8721 21.7761C26.5329 21.7262 26.1907 21.6998 25.8479 21.6973C26.3095 21.8929 26.7231 22.1866 27.06 22.5579C27.3896 22.9417 27.6224 23.3989 27.7388 23.8912Z" fill="url(#paint11_linear_38_2954)"/>
<path d="M18.4661 33.5092C18.0978 33.8165 17.6902 34.0733 17.254 34.2728C16.7621 34.4887 16.2449 34.6415 15.7146 34.7273C15.1128 34.8164 14.5028 34.8367 13.8964 34.788C13.2306 34.7235 12.5741 34.5852 11.9388 34.3758C10.5238 33.8902 9.23704 33.0904 8.17518 32.0364C7.12324 30.973 6.32374 29.6868 5.83579 28.2728C5.62485 27.6383 5.48857 26.9813 5.42973 26.3152C5.37729 25.7089 5.39764 25.0985 5.49034 24.4971C5.57052 23.9636 5.72346 23.4436 5.94488 22.9516C6.14155 22.5152 6.39639 22.1075 6.70246 21.7395C7.23324 21.1022 7.92027 20.6136 8.69639 20.3213H6.64185C5.97144 20.4493 5.34529 20.7478 4.82367 21.188C4.40207 21.5354 4.04685 21.9564 3.77518 22.4304C3.45022 22.9845 3.21306 23.5855 3.07215 24.2122C2.89687 24.9399 2.82546 25.6887 2.86003 26.4364C2.87095 26.8529 2.91146 27.2681 2.98124 27.6789C3.38675 30.0684 4.54133 32.2672 6.27821 33.9577C7.66004 35.3287 9.35554 36.3418 11.2176 36.9092C11.6422 37.0313 12.0732 37.1305 12.5085 37.2061C12.9093 37.2742 13.3143 37.3147 13.7206 37.3273C14.468 37.3611 15.2164 37.2918 15.9449 37.1213C16.5714 36.9768 17.1722 36.7377 17.7267 36.4122C18.2192 36.1648 18.6627 35.8301 19.0358 35.4243C19.4738 34.9021 19.7701 34.276 19.8964 33.6061V31.5455C19.5998 32.314 19.1066 32.9912 18.4661 33.5092Z" fill="url(#paint12_linear_38_2954)"/>
<path d="M7.00577 23.0732C6.73429 23.5023 6.52991 23.9703 6.39971 24.4611C6.27531 24.9994 6.2183 25.5511 6.23001 26.1035C6.2592 26.7194 6.36091 27.3297 6.53304 27.9217C6.72767 28.5734 7.0025 29.1984 7.35123 29.7823C7.74821 30.4118 8.21145 30.9969 8.73304 31.5278L8.76941 31.5702C9.27141 32.0621 9.83102 32.4914 10.4361 32.849C11.0194 33.1959 11.6446 33.4668 12.2967 33.655C12.8883 33.83 13.4987 33.9337 14.1149 33.9641C14.669 33.9694 15.2219 33.9125 15.7633 33.7944C16.2528 33.6603 16.7202 33.4562 17.1512 33.1884C17.5262 32.9462 17.858 32.643 18.133 32.2914C18.6193 31.641 18.9 30.8601 18.9391 30.049C18.9667 29.6447 18.9545 29.2387 18.9027 28.8369C18.6959 29.4776 18.3238 30.0524 17.824 30.5035C17.2494 30.9758 16.5588 31.2855 15.824 31.4005C15.624 31.4308 15.4179 31.4551 15.2179 31.4672C15.0179 31.4793 14.7937 31.4672 14.5755 31.4672C14.3573 31.4672 14.127 31.4187 13.9027 31.3763C13.6785 31.3338 13.4603 31.2611 13.23 31.1884C12.267 30.8651 11.3917 30.3238 10.6724 29.6066C9.95926 28.8841 9.41853 28.0098 9.09062 27.049C9.01789 26.8247 8.95729 26.6005 8.90274 26.3763C8.86292 26.1536 8.8346 25.9291 8.81789 25.7035C8.81789 25.4854 8.81789 25.2732 8.81789 25.0611C8.82995 24.8578 8.85423 24.6554 8.89062 24.4551C9.00032 23.7187 9.31065 23.0267 9.78759 22.455C10.2244 21.9488 10.7866 21.5663 11.4179 21.346C11.0158 21.2973 10.6101 21.2852 10.2058 21.3096C9.39421 21.3465 8.61267 21.6274 7.96335 22.1156C7.59127 22.3772 7.2673 22.7012 7.00577 23.0732Z" fill="url(#paint13_linear_38_2954)"/>
<path d="M10.2363 23.2061C10.0071 23.5191 9.83483 23.8698 9.72718 24.2425C9.61648 24.6162 9.56134 25.0042 9.56354 25.394C9.5645 25.8198 9.62156 26.2437 9.73324 26.6546C9.99767 27.5678 10.485 28.4008 11.1514 29.0788C11.8277 29.7461 12.6616 30.2319 13.5757 30.491C13.9838 30.606 14.4061 30.6631 14.8302 30.6606C15.2202 30.6658 15.6086 30.6106 15.9817 30.497C16.3557 30.3881 16.7083 30.2159 17.0241 29.9879C17.318 29.7703 17.5722 29.5038 17.7757 29.2C18.1546 28.6356 18.3954 27.9899 18.4787 27.3152C18.5275 26.9758 18.5559 26.6338 18.5635 26.291C18.3643 26.7521 18.0688 27.1654 17.6969 27.5031C17.3054 27.8361 16.8365 28.0653 16.3332 28.1697C15.7483 28.2691 15.1481 28.2269 14.5828 28.0467C14.0175 27.8665 13.5036 27.5536 13.0841 27.1341C12.6645 26.7145 12.3516 26.2006 12.1714 25.6353C11.9912 25.07 11.949 24.4698 12.0484 23.8849C12.1541 23.3821 12.3832 22.9135 12.7151 22.5213C13.052 22.15 13.4656 21.8563 13.9272 21.6606C13.5844 21.6632 13.2421 21.6896 12.9029 21.7394C12.227 21.8255 11.58 22.066 11.012 22.4425C10.7105 22.6494 10.4479 22.9079 10.2363 23.2061Z" fill="url(#paint14_linear_38_2954)"/>
<path d="M12.9212 23.5885C12.7247 24.0919 12.6804 24.6419 12.7939 25.1703C12.8591 25.4428 12.9546 25.707 13.0788 25.9582C13.2319 26.2067 13.4085 26.4401 13.606 26.6551V26.6854C13.8034 26.8646 14.0187 27.023 14.2485 27.1582C14.4994 27.2842 14.7637 27.3818 15.0363 27.4491C15.5911 27.5691 16.1698 27.5086 16.6877 27.2763C17.2057 27.0441 17.6357 26.6523 17.9151 26.1582C18.1918 25.6712 18.396 25.1465 18.5212 24.6006C18.5879 24.3218 18.6485 24.043 18.6909 23.7824C18.5347 24.0917 18.3301 24.374 18.0848 24.6188C17.8462 24.8411 17.5632 25.0104 17.2545 25.1157C16.9493 25.2083 16.6251 25.2189 16.3145 25.1466C16.0039 25.0743 15.7177 24.9215 15.4848 24.7036C15.2649 24.4707 15.1103 24.1838 15.0369 23.872C14.9635 23.5602 14.9737 23.2344 15.0666 22.9279C15.1745 22.6221 15.3436 22.3417 15.5636 22.1036C15.8103 21.858 16.0947 21.6534 16.406 21.4976C16.1394 21.546 15.8666 21.6006 15.5818 21.6673C15.037 21.7899 14.5139 21.9942 14.0303 22.2733C13.5242 22.5757 13.1338 23.0386 12.9212 23.5885Z" fill="url(#paint15_linear_38_2954)"/>
<defs>
<linearGradient id="paint0_linear_38_2954" x1="19.8967" y1="11.8063" x2="36.9573" y2="11.8063" gradientUnits="userSpaceOnUse">
<stop stop-color="#E53282"/>
<stop offset="1" stop-color="#851D7B"/>
</linearGradient>
<linearGradient id="paint1_linear_38_2954" x1="20.825" y1="13.049" x2="33.5462" y2="13.049" gradientUnits="userSpaceOnUse">
<stop stop-color="#E53282"/>
<stop offset="1" stop-color="#851D7B"/>
</linearGradient>
<linearGradient id="paint2_linear_38_2954" x1="21.2234" y1="14.503" x2="30.2295" y2="14.503" gradientUnits="userSpaceOnUse">
<stop stop-color="#E53282"/>
<stop offset="1" stop-color="#851D7B"/>
</linearGradient>
<linearGradient id="paint3_linear_38_2954" x1="21.0485" y1="16.1819" x2="27.0545" y2="16.1819" gradientUnits="userSpaceOnUse">
<stop stop-color="#E53282"/>
<stop offset="1" stop-color="#851D7B"/>
</linearGradient>
<linearGradient id="paint4_linear_38_2954" x1="2.82973" y1="11.8065" x2="19.8964" y2="11.8065" gradientUnits="userSpaceOnUse">
<stop stop-color="#F08504"/>
<stop offset="1" stop-color="#E5322D"/>
</linearGradient>
<linearGradient id="paint5_linear_38_2954" x1="6.24865" y1="13.0485" x2="18.9699" y2="13.0485" gradientUnits="userSpaceOnUse">
<stop stop-color="#F08504"/>
<stop offset="1" stop-color="#E5322D"/>
</linearGradient>
<linearGradient id="paint6_linear_38_2954" x1="9.56334" y1="14.5032" x2="18.5694" y2="14.5032" gradientUnits="userSpaceOnUse">
<stop stop-color="#F08504"/>
<stop offset="1" stop-color="#E5322D"/>
</linearGradient>
<linearGradient id="paint7_linear_38_2954" x1="12.7332" y1="16.1821" x2="18.7453" y2="16.1821" gradientUnits="userSpaceOnUse">
<stop stop-color="#F08504"/>
<stop offset="1" stop-color="#E5322D"/>
</linearGradient>
<linearGradient id="paint8_linear_38_2954" x1="20.9159" y1="34.6547" x2="35.0855" y2="21.4729" gradientUnits="userSpaceOnUse">
<stop stop-color="#97BE11"/>
<stop offset="1" stop-color="#258F2D"/>
</linearGradient>
<linearGradient id="paint9_linear_38_2954" x1="17.4127" y1="30.8976" x2="31.5884" y2="17.7157" gradientUnits="userSpaceOnUse">
<stop stop-color="#97BE11"/>
<stop offset="1" stop-color="#258F2D"/>
</linearGradient>
<linearGradient id="paint10_linear_38_2954" x1="22.4607" y1="36.3219" x2="36.6365" y2="23.14" gradientUnits="userSpaceOnUse">
<stop stop-color="#97BE11"/>
<stop offset="1" stop-color="#258F2D"/>
</linearGradient>
<linearGradient id="paint11_linear_38_2954" x1="19.2236" y1="32.8367" x2="33.3933" y2="19.6609" gradientUnits="userSpaceOnUse">
<stop stop-color="#97BE11"/>
<stop offset="1" stop-color="#258F2D"/>
</linearGradient>
<linearGradient id="paint12_linear_38_2954" x1="15.7873" y1="35.994" x2="5.01761" y2="23.2364" gradientUnits="userSpaceOnUse">
<stop stop-color="#3AB4E6"/>
<stop offset="1" stop-color="#004996"/>
</linearGradient>
<linearGradient id="paint13_linear_38_2954" x1="17.4846" y1="34.5641" x2="6.7088" y2="21.8066" gradientUnits="userSpaceOnUse">
<stop stop-color="#3AB4E6"/>
<stop offset="1" stop-color="#004996"/>
</linearGradient>
<linearGradient id="paint14_linear_38_2954" x1="19.3332" y1="33" x2="8.56354" y2="20.2425" gradientUnits="userSpaceOnUse">
<stop stop-color="#3AB4E6"/>
<stop offset="1" stop-color="#004996"/>
</linearGradient>
<linearGradient id="paint15_linear_38_2954" x1="21.3333" y1="31.3157" x2="10.5575" y2="18.5582" gradientUnits="userSpaceOnUse">
<stop stop-color="#3AB4E6"/>
<stop offset="1" stop-color="#004996"/>
</linearGradient>
</defs>
</svg>
