<svg width="40" height="40" viewBox="0 0 40 40" fill="none" xmlns="http://www.w3.org/2000/svg">
<path d="M29.4631 25.4507C29.451 25.2682 29.428 25.0867 29.3943 24.9069L29.3568 24.6757C29.2886 24.2649 29.1904 23.8597 29.0631 23.4632L28.9944 23.2194C28.783 22.6383 28.541 22.0687 28.2693 21.5132L25.9193 24.8319C24.8884 26.3028 23.641 27.6092 22.2194 28.7069C21.0667 29.5918 19.7795 30.286 18.4068 30.7632C16.5075 31.4692 14.448 31.6273 12.4631 31.2194C10.1947 30.767 8.0886 29.7161 6.36309 28.1757C4.77875 26.7881 3.5015 25.0852 2.61309 23.1757C2.52928 23.6715 2.48331 24.1729 2.47559 24.6757C2.48893 25.3036 2.54322 25.9299 2.63809 26.5507L2.6881 26.7632C2.79721 27.3622 2.95396 27.9516 3.15685 28.5257C3.38964 29.2035 3.68028 29.8601 4.02559 30.4882C4.24434 30.8882 4.41935 31.1882 4.58185 31.4632C4.74435 31.7382 4.98185 32.0382 5.20685 32.3319C7.41284 35.2885 10.6879 37.2647 14.3318 37.8382C15.4999 38.0215 16.6866 38.0551 17.8631 37.9382C19.3702 37.8695 20.8524 37.5286 22.2381 36.9319L22.4381 36.8319C22.9304 36.5934 23.4083 36.3263 23.8693 36.0319C25.6711 34.8906 27.153 33.3098 28.1756 31.4382C29.0224 29.8591 29.4749 28.0987 29.4943 26.3069C29.4881 26.0007 29.4818 25.7257 29.4631 25.4507Z" fill="url(#paint0_linear_38_3492)"/>
<path d="M37.1121 20.238C37.6934 22.1516 37.8617 24.1669 37.6059 26.1505C37.2301 28.75 36.1493 31.1969 34.4809 33.2255C32.822 35.2845 30.6138 36.8317 28.1121 37.688C26.6 38.202 24.9927 38.3749 23.4059 38.1942C25.4817 37.1695 27.2771 35.6551 28.6371 33.7817C29.898 32.0381 30.7134 30.0126 31.0121 27.8817C31.2207 26.3523 31.1079 24.7962 30.6809 23.313C29.9707 20.8348 28.6539 18.5729 26.8496 16.7317C26.1936 15.9896 25.4626 15.3173 24.6684 14.7255L24.5309 14.613L24.3121 14.4755C24.2167 14.4187 24.1248 14.356 24.0371 14.288L23.7371 14.1005C23.6393 14.049 23.5453 13.9905 23.4559 13.9255L23.3309 13.8505C23.2209 13.7992 23.1144 13.7407 23.0121 13.6755C22.9112 13.6115 22.8069 13.5531 22.6996 13.5005C22.6111 13.4631 22.5254 13.4192 22.4434 13.3692C22.3139 13.2892 22.1781 13.2202 22.0371 13.163C21.4684 12.8817 20.8371 12.5942 20.1621 12.3067L20.2559 12.238C20.4184 12.1505 20.5808 12.0505 20.7558 11.938C20.9308 11.8255 21.1433 11.6942 21.3808 11.5817C23.0012 10.72 24.8452 10.3712 26.6684 10.5817C28.8211 10.8523 30.8557 11.7181 32.5434 13.0817C33.6138 13.9412 34.5418 14.9642 35.2934 16.113C36.0992 17.391 36.7121 18.781 37.1121 20.238Z" fill="url(#paint1_linear_38_3492)"/>
<path d="M18.0371 11.8376C16.6266 12.9373 15.388 14.2412 14.3621 15.7064L12.0246 19.0064C11.7506 18.4583 11.5085 17.8949 11.2996 17.3189L11.2184 17.0439C11.0924 16.658 10.9963 16.2631 10.9308 15.8626L10.8996 15.6501C10.8684 15.4564 10.8371 15.2564 10.8184 15.0876C10.8184 14.8189 10.8184 14.5376 10.7871 14.2689C10.7893 13.3897 10.9005 12.5143 11.1184 11.6626C11.3429 10.7944 11.668 9.95541 12.0871 9.16261C13.0932 7.28476 14.5599 5.69332 16.3496 4.53761C18.4756 3.15028 20.9549 2.40194 23.4934 2.38136C26.469 2.35645 29.3771 3.26824 31.8059 4.98761C32.3059 5.34386 32.7996 5.76886 33.3434 6.23761C33.8432 6.7271 34.3148 7.2446 34.7559 7.78761L34.9371 8.03136C35.3259 8.52896 35.6729 9.05785 35.9746 9.61261C36.1621 9.93761 36.3309 10.2376 36.4934 10.5814C36.6559 10.9251 36.7309 11.1439 36.8371 11.4314L36.9809 11.8064C37.0746 12.0689 37.1621 12.3126 37.2246 12.5564C37.3121 12.9001 37.3934 13.2439 37.4621 13.5939C37.5903 14.2108 37.6573 14.8388 37.6621 15.4689C37.6787 15.9375 37.6473 16.4066 37.5684 16.8689C36.6467 14.9881 35.3441 13.3195 33.7433 11.9689C31.9649 10.4731 29.8247 9.47091 27.5371 9.06261C25.5225 8.69504 23.4448 8.91192 21.5496 9.68761L21.3496 9.78136C20.9164 9.97424 20.4985 10.1999 20.0996 10.4564L19.8434 10.6126L19.4371 10.8626C19.2184 11.0189 19.0371 11.1439 18.8808 11.2376C18.7059 11.342 18.5388 11.4589 18.3809 11.5876C18.2849 11.662 18.1847 11.7309 18.0808 11.7939L18.0371 11.8376Z" fill="url(#paint2_linear_38_3492)"/>
<path d="M20.025 28.2189C19.6062 28.4314 19.1812 28.6376 18.775 28.8439L18.7 28.8751C17.0708 29.7147 15.2182 30.0187 13.4062 29.7439C11.3258 29.4498 9.36779 28.5844 7.74994 27.2439C5.93467 25.7268 4.54361 23.7651 3.71245 21.5501L3.67495 21.4376C3.6568 21.3866 3.63593 21.3365 3.61244 21.2876L3.36245 20.5064C3.34099 20.4118 3.30059 20.3225 3.2437 20.2439C2.53738 18.2393 2.36507 16.0853 2.7437 13.9939C3.18503 11.4564 4.29626 9.08289 5.96245 7.11888C7.63179 5.12446 9.82764 3.63891 12.2999 2.83138C13.768 2.34272 15.3252 2.18061 16.8625 2.35638C14.7888 3.38198 12.9972 4.89892 11.6437 6.77513C10.3911 8.51676 9.5823 10.5377 9.28746 12.6626C9.08294 14.1669 9.19361 15.6972 9.61245 17.1564C10.3598 19.5922 11.6653 21.82 13.425 23.6626C14.0598 24.4005 14.7652 25.0745 15.5312 25.6751C16.9314 26.6851 18.4384 27.5381 20.025 28.2189Z" fill="url(#paint3_linear_38_3492)"/>
<defs>
<linearGradient id="paint0_linear_38_3492" x1="28.2631" y1="24.5757" x2="1.73184" y2="33.8194" gradientUnits="userSpaceOnUse">
<stop stop-color="#004996"/>
<stop offset="1" stop-color="#3AB4E6"/>
</linearGradient>
<linearGradient id="paint1_linear_38_3492" x1="24.7746" y1="11.9255" x2="32.8371" y2="37.3067" gradientUnits="userSpaceOnUse">
<stop stop-color="#851D7B"/>
<stop offset="1" stop-color="#E53282"/>
</linearGradient>
<linearGradient id="paint2_linear_38_3492" x1="10.8059" y1="15.0126" x2="35.8496" y2="7.85636" gradientUnits="userSpaceOnUse">
<stop stop-color="#E5322D"/>
<stop offset="1" stop-color="#F08504"/>
</linearGradient>
<linearGradient id="paint3_linear_38_3492" x1="18.3312" y1="27.9314" x2="6.09995" y2="3.77513" gradientUnits="userSpaceOnUse">
<stop stop-color="#258F2D"/>
<stop offset="1" stop-color="#97BE11"/>
</linearGradient>
</defs>
</svg>
