<svg width="40" height="40" viewBox="0 0 40 40" fill="none" xmlns="http://www.w3.org/2000/svg">
<path d="M7.77331 13.2688C7.77331 13.3621 7.77331 13.5021 7.81331 13.6821C7.85331 14.0421 7.92664 14.5421 8.0333 15.1021C8.17671 15.7336 8.36157 16.355 8.58665 16.9621C8.84658 17.6165 9.16567 18.2458 9.53998 18.8421C9.72664 19.1355 9.91997 19.4088 10.1133 19.6688C10.3066 19.9288 10.54 20.1755 10.7466 20.3955C11.1201 20.7898 11.5309 21.147 11.9733 21.4621C13.7333 22.7955 16.6866 23.1021 18.82 22.7955C18.8575 22.8067 18.8976 22.8062 18.9349 22.7942C18.9722 22.7821 19.0049 22.759 19.0288 22.7279C19.0526 22.6969 19.0665 22.6592 19.0685 22.6201C19.0705 22.581 19.0605 22.5422 19.04 22.5088C18.6178 20.6661 18.9235 18.7315 19.8933 17.1088C20.4578 16.2329 21.1297 15.4311 21.8933 14.7221L22.2 14.4288C22.4834 14.1879 22.7817 13.9653 23.0933 13.7621C24.1304 13.0893 25.2832 12.6146 26.4933 12.3621C27.8461 12.095 29.2339 12.0545 30.6 12.2421C31.0889 12.3078 31.574 12.399 32.0533 12.5155L32.6 12.6688C32.5833 11.7796 32.4396 10.8973 32.1733 10.0488C31.8781 9.15179 31.4656 8.29773 30.9466 7.50879C29.7814 5.75145 28.1712 4.33443 26.28 3.40212C24.279 2.39164 22.0612 1.88584 19.82 1.92879C17.5952 1.96303 15.4149 2.55683 13.48 3.65546C11.6513 4.6635 10.12 6.13498 9.03998 7.92212C8.11493 9.48409 7.66547 11.2819 7.74664 13.0955L7.77331 13.2688Z" fill="url(#paint0_linear_38_1177)"/>
<path d="M38.8196 23.6553C38.7529 23.1286 38.6596 22.6086 38.5463 22.102C38.2925 21.1294 37.9114 20.1947 37.413 19.322C36.5395 17.7261 35.2062 16.43 33.5863 15.602L33.0929 15.362C32.6575 15.1683 32.2125 14.9969 31.7596 14.8486C30.4714 14.4194 29.1165 14.2252 27.7596 14.2753C24.8663 14.3286 21.6129 16.2219 20.4263 18.9419C20.41 18.9918 20.41 19.0455 20.4263 19.0953C20.4378 19.14 20.4636 19.1798 20.4996 19.2086C21.5769 20.277 22.5647 21.432 23.453 22.6619C24.2317 24.0087 24.7963 25.4683 25.1263 26.9886V27.102C25.155 27.2004 25.1772 27.3006 25.1929 27.4019C25.2329 27.6553 25.293 28.0353 25.333 28.5153C25.3561 29.0714 25.3383 29.6285 25.2796 30.1819C25.1936 30.8474 25.0463 31.5035 24.8396 32.1419C24.7263 32.4753 24.5996 32.8086 24.4596 33.1553C24.3196 33.502 24.1463 33.8219 23.9796 34.1086C23.6635 34.6923 23.2977 35.2477 22.8863 35.7686C22.5886 36.1603 22.2657 36.5322 21.9196 36.882L21.5129 37.2886C23.1436 38.1758 24.9947 38.5761 26.8463 38.4419C28.9455 38.3017 30.971 37.612 32.7196 36.4419C34.5928 35.2256 36.1368 33.5658 37.2149 31.6098C38.2929 29.6537 38.8716 27.4619 38.8996 25.2286C38.9079 24.703 38.8812 24.1774 38.8196 23.6553Z" fill="url(#paint1_linear_38_1177)"/>
<path d="M22.6207 32.3222C23.5073 30.6822 23.5207 28.6955 23.354 26.8889C23.3053 25.4833 22.8768 24.1171 22.114 22.9355C21.0673 23.8889 19.3607 24.0155 18.0073 24.1155C17.3435 24.1907 16.6753 24.2219 16.0073 24.2089C14.9671 24.1621 13.9369 23.9851 12.9407 23.6822L12.5473 23.5489C12.1897 23.4296 11.842 23.2825 11.5073 23.1089C11.0136 22.8598 10.5429 22.5676 10.1007 22.2355C9.854 22.0422 9.58734 21.8355 9.33401 21.6089C9.08067 21.3822 8.85401 21.1355 8.60734 20.8689C8.13007 20.331 7.6996 19.7533 7.32066 19.1422C6.98662 18.5688 6.69044 17.9742 6.434 17.3622C6.22067 16.8155 6.06067 16.3222 5.954 15.9689C5.89677 15.7873 5.85003 15.6025 5.81401 15.4155C4.24177 16.3757 2.97478 17.7629 2.16067 19.4155C1.24637 21.2971 0.824324 23.3798 0.934003 25.4689C1.0479 27.7096 1.71929 29.8865 2.88733 31.8022C4.03894 33.7151 5.64107 35.3173 7.554 36.4689C9.34182 37.5381 11.3779 38.1218 13.4607 38.1622C15.2812 38.1988 17.0712 37.6904 18.6007 36.7022L19.0607 36.3822C19.4498 36.1028 19.8216 35.8 20.174 35.4755C20.6594 35.0448 21.1056 34.5719 21.5073 34.0622C21.7273 33.7889 21.934 33.5155 22.1273 33.2222C22.3207 32.9289 22.4607 32.6289 22.6207 32.3222Z" fill="url(#paint2_linear_38_1177)"/>
<defs>
<linearGradient id="paint0_linear_38_1177" x1="13.8333" y1="21.5155" x2="26.0533" y2="1.96213" gradientUnits="userSpaceOnUse">
<stop stop-color="#E5322D"/>
<stop offset="1" stop-color="#F08504"/>
</linearGradient>
<linearGradient id="paint1_linear_38_1177" x1="21.5063" y1="18.3553" x2="34.8396" y2="34.7953" gradientUnits="userSpaceOnUse">
<stop stop-color="#004996"/>
<stop offset="1" stop-color="#3AB4E6"/>
</linearGradient>
<linearGradient id="paint2_linear_38_1177" x1="2.954" y1="31.5355" x2="20.954" y2="20.8689" gradientUnits="userSpaceOnUse">
<stop stop-color="#97BE11"/>
<stop offset="1" stop-color="#258F2D"/>
</linearGradient>
</defs>
</svg>
