<svg width="40" height="40" viewBox="0 0 40 40" fill="none" xmlns="http://www.w3.org/2000/svg">
<path d="M9.25285 27.7934C6.43096 26.6221 3.82927 24.9786 1.55951 22.9333C1.21787 20.7603 1.26301 18.544 1.69285 16.3867C4.0029 14.327 6.65051 12.6807 9.51951 11.52C9.6048 11.6253 9.70087 11.7214 9.80618 11.8067C8.26699 16.9098 8.19078 22.3424 9.58618 27.4867C9.46274 27.5746 9.35076 27.6777 9.25285 27.7934Z" fill="url(#paint0_linear_38_1050)"/>
<path d="M10.7733 30.9732C11.8339 33.5369 13.2647 35.9313 15.02 38.0799C11.9075 37.209 9.073 35.5482 6.79168 33.2587C4.51037 30.9692 2.85973 28.1288 2 25.0132C4.07007 26.6556 6.3587 28.0018 8.8 29.0132C8.79632 29.0285 8.79632 29.0445 8.8 29.0599C8.8 29.5726 9.00369 30.0644 9.36626 30.4269C9.72883 30.7895 10.2206 30.9932 10.7333 30.9932L10.7733 30.9732Z" fill="url(#paint1_linear_38_1050)"/>
<path d="M9.07327 10.3467C6.63387 11.3263 4.34294 12.6412 2.2666 14.2533C3.21646 11.3195 4.8784 8.66661 7.10388 6.53187C9.32937 4.39713 12.0491 2.847 15.0199 2.02002C13.433 3.95036 12.1123 6.08498 11.0933 8.36669H10.9866C10.4738 8.36669 9.98209 8.57038 9.61952 8.93295C9.25695 9.29552 9.05327 9.78727 9.05327 10.3C9.05513 10.3172 9.06209 10.3335 9.07327 10.3467Z" fill="url(#paint2_linear_38_1050)"/>
<path d="M12.2861 8.85356C13.492 6.17375 15.1293 3.70993 17.1328 1.56024C18.0985 1.40679 19.075 1.33098 20.0528 1.33356C21.024 1.33096 21.9938 1.40677 22.9528 1.56024C24.9593 3.72392 26.5987 6.20102 27.8061 8.89357C27.6657 9.03142 27.5425 9.18589 27.4395 9.35356C24.9269 8.64725 22.3294 8.28837 19.7195 8.2869C17.3078 8.28751 14.906 8.59668 12.5728 9.20689C12.4919 9.07798 12.3956 8.95934 12.2861 8.85356Z" fill="url(#paint3_linear_38_1050)"/>
<path d="M28.1336 30.5067C26.9024 33.4617 25.1501 36.1714 22.9603 38.5067C21.0321 38.8089 19.0685 38.8089 17.1403 38.5067C14.9557 36.1688 13.206 33.4596 11.9736 30.5067C12.086 30.4053 12.1887 30.2937 12.2803 30.1733C14.7056 30.8311 17.2073 31.1652 19.7203 31.1667C22.4293 31.1652 25.1238 30.7723 27.7203 30C27.8294 30.1904 27.969 30.3616 28.1336 30.5067Z" fill="url(#paint4_linear_38_1050)"/>
<path d="M29.0673 12.2132C30.5416 17.0599 30.6202 22.2239 29.294 27.1132C28.8496 27.1343 28.4263 27.3084 28.0957 27.6062C27.7652 27.9039 27.5479 28.3068 27.4806 28.7465C24.9631 29.5023 22.3492 29.8886 19.7206 29.8932C17.332 29.8888 14.9542 29.5728 12.6473 28.9532C12.6293 28.4721 12.4305 28.0155 12.0907 27.6744C11.7509 27.3334 11.295 27.133 10.814 27.1132C9.49191 22.2264 9.56581 17.0668 11.0273 12.2199C11.5135 12.2123 11.9788 12.0212 12.3299 11.6849C12.6811 11.3486 12.8921 10.8919 12.9206 10.4065C17.6128 9.18387 22.5475 9.24604 27.2073 10.5865C27.275 11.0338 27.499 11.4426 27.8395 11.7404C28.18 12.0382 28.615 12.2057 29.0673 12.2132Z" fill="url(#paint5_radial_38_1050)"/>
<path d="M29.0202 8.34698C27.9899 6.06777 26.6677 3.93212 25.0869 1.99365C28.1797 2.85487 30.9991 4.49673 33.2745 6.76159C35.5498 9.02645 37.2047 11.8382 38.0802 14.927C35.9516 13.1432 33.5729 11.681 31.0202 10.587C31.0308 10.4873 31.0308 10.3867 31.0202 10.287C31.0185 9.77362 30.8133 9.28189 30.4497 8.91951C30.086 8.55713 29.5936 8.35364 29.0802 8.35365L29.0202 8.34698Z" fill="url(#paint6_linear_38_1050)"/>
<path d="M31.2866 28.7004C33.8224 27.5735 36.1788 26.0797 38.2799 24.2671C37.5218 27.5426 35.8953 30.5533 33.5714 32.9829C31.2474 35.4124 28.3118 37.171 25.0732 38.0737C26.8318 35.9274 28.2669 33.5354 29.3332 30.9738H29.3799C29.6618 30.9708 29.9397 30.9069 30.1945 30.7864C30.4494 30.666 30.6751 30.4917 30.8563 30.2758C31.0374 30.0598 31.1697 29.8071 31.244 29.5352C31.3182 29.2633 31.3328 28.9785 31.2866 28.7004Z" fill="url(#paint7_linear_38_1050)"/>
<path d="M38.7666 20.0469C38.7662 20.7689 38.7217 21.4903 38.6333 22.2069C36.3085 24.4626 33.5992 26.2846 30.6333 27.5869C30.5957 27.548 30.5531 27.5144 30.5066 27.4869C31.9081 22.3468 31.8249 16.9149 30.2666 11.8202L30.3933 11.7202C33.4034 13.0071 36.1547 14.83 38.5133 17.1002C38.6787 18.0738 38.7634 19.0594 38.7666 20.0469Z" fill="url(#paint8_linear_38_1050)"/>
<defs>
<linearGradient id="paint0_linear_38_1050" x1="1.33285" y1="19.66" x2="9.80618" y2="19.66" gradientUnits="userSpaceOnUse">
<stop stop-color="#3AB4E6"/>
<stop offset="1" stop-color="#004996"/>
</linearGradient>
<linearGradient id="paint1_linear_38_1050" x1="6.79333" y1="33.2999" x2="9.66" y2="30.3599" gradientUnits="userSpaceOnUse">
<stop stop-color="#F08504"/>
<stop offset="1" stop-color="#E5322D"/>
</linearGradient>
<linearGradient id="paint2_linear_38_1050" x1="7.0266" y1="6.50002" x2="9.43327" y2="8.90668" gradientUnits="userSpaceOnUse">
<stop stop-color="#F08504"/>
<stop offset="1" stop-color="#E5322D"/>
</linearGradient>
<linearGradient id="paint3_linear_38_1050" x1="20.0461" y1="1.92689" x2="20.0461" y2="8.13356" gradientUnits="userSpaceOnUse">
<stop stop-color="#E53282"/>
<stop offset="1" stop-color="#851D7B"/>
</linearGradient>
<linearGradient id="paint4_linear_38_1050" x1="20.0536" y1="31.2867" x2="20.0536" y2="38.7267" gradientUnits="userSpaceOnUse">
<stop stop-color="#851D7B"/>
<stop offset="1" stop-color="#E53282"/>
</linearGradient>
<radialGradient id="paint5_radial_38_1050" cx="0" cy="0" r="1" gradientUnits="userSpaceOnUse" gradientTransform="translate(20.054 19.7132) scale(10.18 10.18)">
<stop stop-color="#97BE11"/>
<stop offset="0.16" stop-color="#92BC12"/>
<stop offset="0.36" stop-color="#82B516"/>
<stop offset="0.58" stop-color="#69AB1C"/>
<stop offset="0.82" stop-color="#459C25"/>
<stop offset="1" stop-color="#258F2D"/>
</radialGradient>
<linearGradient id="paint6_linear_38_1050" x1="30.4802" y1="9.28698" x2="33.5802" y2="6.96032" gradientUnits="userSpaceOnUse">
<stop stop-color="#E5322D"/>
<stop offset="1" stop-color="#F08504"/>
</linearGradient>
<linearGradient id="paint7_linear_38_1050" x1="30.7399" y1="30.3804" x2="33.6866" y2="32.8604" gradientUnits="userSpaceOnUse">
<stop stop-color="#E5322D"/>
<stop offset="1" stop-color="#F08504"/>
</linearGradient>
<linearGradient id="paint8_linear_38_1050" x1="30.2799" y1="19.6535" x2="38.7666" y2="19.6535" gradientUnits="userSpaceOnUse">
<stop stop-color="#004996"/>
<stop offset="1" stop-color="#3AB4E6"/>
</linearGradient>
</defs>
</svg>
