<svg width="28" height="28" viewBox="0 0 28 28" fill="none" xmlns="http://www.w3.org/2000/svg">
<g clip-path="url(#clip0_16_6884)">
<path d="M25.6674 19.7403V23.2403C25.6687 23.5652 25.6022 23.8868 25.472 24.1845C25.3418 24.4822 25.1509 24.7495 24.9115 24.9691C24.6721 25.1888 24.3894 25.356 24.0816 25.4601C23.7738 25.5642 23.4477 25.6029 23.1241 25.5736C19.534 25.1835 16.0856 23.9568 13.0557 21.9919C10.2369 20.2007 7.84696 17.8108 6.05574 14.9919C4.08404 11.9483 2.85702 8.4831 2.47407 4.87694C2.44491 4.55432 2.48326 4.22916 2.58665 3.92217C2.69005 3.61518 2.85624 3.33308 3.07463 3.09383C3.29302 2.85459 3.55884 2.66344 3.85516 2.53255C4.15148 2.40167 4.4718 2.33391 4.79574 2.33361H8.29574C8.86193 2.32804 9.41083 2.52853 9.84012 2.89773C10.2694 3.26693 10.5498 3.77963 10.6291 4.34028C10.7768 5.46035 11.0508 6.56012 11.4457 7.61861C11.6027 8.03619 11.6367 8.49001 11.5436 8.9263C11.4506 9.3626 11.2344 9.76307 10.9207 10.0803L9.43907 11.5619C11.0999 14.4827 13.5183 16.9011 16.4391 18.5619L17.9207 17.0803C18.2379 16.7666 18.6384 16.5504 19.0747 16.4574C19.511 16.3643 19.9648 16.3983 20.3824 16.5553C21.4409 16.9503 22.5407 17.2242 23.6607 17.3719C24.2275 17.4519 24.745 17.7373 25.115 18.174C25.485 18.6107 25.6816 19.1681 25.6674 19.7403Z" stroke="#309689" stroke-width="3" stroke-linecap="round" stroke-linejoin="round"/>
</g>
<defs>
<clipPath id="clip0_16_6884">
<rect width="28" height="28" fill="white"/>
</clipPath>
</defs>
</svg>
